# xmcd
#
# Track frame offsets:
#	180
#	18710
#	34025
#	49258
#	69805
#	86749
#	106418
#	119693
#	134152
#	152777
#	168125
#	183356
#	203910
#	220833
#	240639
#	253907
#
# Disc length: 3578 seconds
#
# Revision: 1
# Processed by: cddbd v1.5.1PL2 Copyright (c) Steve Scherf et al.
# Submitted via: audiograbber 1.83.01
#
DISCID=e90df810
DTITLE=Montgomery, John Michael - Sc2006
DYEAR=1900
DGENRE=Country
TTITLE0=I Love The Way You Love Me
TTITLE1=Life's A Dance
TTITLE2=Kick It Up
TTITLE3=I Swear
TTITLE4=Beer and Bones
TTITLE5=Rope The Moon
TTITLE6=Be My Baby Tonight
TTITLE7=Nickels And Dimes And Love
TTITLE8=I Love The Way You Love Me (Vocal)
TTITLE9=Life's A Dance (Vocal)
TTITLE10=Kick It Up (Vocal)
TTITLE11=I Swear (Vocal)
TTITLE12=Beer and Bones (Vocal)
TTITLE13=Rope The Moon (Vocal)
TTITLE14=Be My Baby Tonight (Vocal)
TTITLE15=Nickels And Dimes And Love (Vocal)
EXTD=
EXTT0=
EXTT1=
EXTT2=
EXTT3=
EXTT4=
EXTT5=
EXTT6=
EXTT7=
EXTT8=
EXTT9=
EXTT10=
EXTT11=
EXTT12=
EXTT13=
EXTT14=
EXTT15=
PLAYORDER=
